<svg xmlns="http://www.w3.org/2000/svg" width="48" height="46" fill="none" viewBox="0 0 48 46"><path fill="#863bff" d="M25.946 44.938c-.664.845-2.021.375-2.021-.698V33.937a2.26 2.26 0 0 0-2.262-2.262H10.287c-.92 0-1.456-1.04-.92-1.788l7.48-10.471c1.07-1.497 0-3.578-1.842-3.578H1.237c-.92 0-1.456-1.04-.92-1.788L10.013.474c.214-.297.556-.474.92-.474h28.894c.92 0 1.456 1.04.92 1.788l-7.48 10.471c-1.07 1.498 0 3.579 1.842 3.579h11.377c.943 0 1.473 1.088.89 1.83L25.947 44.94z" style="fill:#863bff;fill:color(display-p3 .5252 .23 1);fill-opacity:1"/><mask id="a" width="48" height="46" x="0" y="0" maskUnits="userSpaceOnUse" style="mask-type:alpha"><path fill="#000" d="M25.842 44.938c-.664.844-2.021.375-2.021-.698V33.937a2.26 2.26 0 0 0-2.262-2.262H10.183c-.92 0-1.456-1.04-.92-1.788l7.48-10.471c1.07-1.498 0-3.579-1.842-3.579H1.133c-.92 0-1.456-1.04-.92-1.787L9.91.473c.214-.297.556-.474.92-.474h28.894c.92 0 1.456 1.04.92 1.788l-7.48 10.471c-1.07 1.498 0 3.578 1.842 3.578h11.377c.943 0 1.473 1.088.89 1.832L25.843 44.94z" style="fill:#000;fill-opacity:1"/></mask><g mask="url(#a)"><g filter="url(#b)"><ellipse cx="5.508" cy="14.704" fill="#ede6ff" rx="5.508" ry="14.704" style="fill:#ede6ff;fill:color(display-p3 .9275 .9033 1);fill-opacity:1" transform="matrix(.00324 1 1 -.00324 -4.47 31.516)"/></g><g filter="url(#c)"><ellipse cx="10.399" cy="29.851" fill="#ede6ff" rx="10.399" ry="29.851" style="fill:#ede6ff;fill:color(display-p3 .9275 .9033 1);fill-opacity:1" transform="matrix(.00324 1 1 -.00324 -39.328 7.883)"/></g><g filter="url(#d)"><ellipse cx="5.508" cy="30.487" fill="#7e14ff" rx="5.508" ry="30.487" style="fill:#7e14ff;fill:color(display-p3 .4922 .0767 1);fill-opacity:1" transform="rotate(89.814 -25.913 -14.639)scale(1 -1)"/></g><g filter="url(#e)"><ellipse cx="5.508" cy="30.599" fill="#7e14ff" rx="5.508" ry="30.599" style="fill:#7e14ff;fill:color(display-p3 .4922 .0767 1);fill-opacity:1" transform="rotate(89.814 -32.644 -3.334)scale(1 -1)"/></g><g filter="url(#f)"><ellipse cx="6.707" cy="3.514" fill="#ede6ff" rx="6.707" ry="3.514" style="fill:#ede6ff;fill:color(display-p3 .9275 .9033 1);fill-opacity:1" transform="matrix(.99993 .01164 -.01162 .99993 2.97 44.55)"/></g></g><defs><filter id="b" width="43.462" height="67.175" color-interpolation-filters="sRGB" filterUnits="userSpaceOnUse" x="-12.647" y="8.085"><feFlood flood-opacity="0" result="BackgroundImageFix"/><feBlend in="SourceGraphic" in2="BackgroundImageFix" result="shape"/><feColorMatrix in="SourceAlpha" result="hardAlpha" values="0 0 0 0 0 0 0 0 0 0 0 0 0 0 0 0 0 0 127 0"/><feOffset dx=".186" dy=".333"/><feGaussianBlur stdDeviation="3.328"/><feComposite in2="hardAlpha" k2="-1" k3="1" operator="arithmetic"/><feColorMatrix values="0 0 0 0 0.494118 0 0 0 0 0.0784314 0 0 0 0 1 0 0 0 0.4 0"/><feBlend in2="shape" result="effect1_innerShadow_402_687309"/></filter><filter id="c" width="78.916" height="135.023" color-interpolation-filters="sRGB" filterUnits="userSpaceOnUse" x="-39.563" y="-13.178"><feFlood flood-opacity="0" result="BackgroundImageFix"/><feBlend in="SourceGraphic" in2="BackgroundImageFix" result="shape"/><feColorMatrix in="SourceAlpha" result="hardAlpha" values="0 0 0 0 0 0 0 0 0 0 0 0 0 0 0 0 0 0 127 0"/><feOffset dx=".092" dy=".178"/><feGaussianBlur stdDeviation="3.391"/><feComposite in2="hardAlpha" k2="-1" k3="1" operator="arithmetic"/><feColorMatrix values="0 0 0 0 0.494118 0 0 0 0 0.0784314 0 0 0 0 1 0 0 0 0.4 0"/><feBlend in2="shape" result="effect1_innerShadow_402_687309"/></filter><filter id="d" width="64.471" height="118.741" color-interpolation-filters="sRGB" filterUnits="userSpaceOnUse" x="-26.728.339" y="-26.914"><feFlood flood-opacity="0" result="BackgroundImageFix"/><feBlend in="SourceGraphic" in2="BackgroundImageFix" result="shape"/><feColorMatrix in="SourceAlpha" result="hardAlpha" values="0 0 0 0 0 0 0 0 0 0 0 0 0 0 0 0 0 0 127 0"/><feOffset dx=".05" dy=".141"/><feGaussianBlur stdDeviation="2.483"/><feComposite in2="hardAlpha" k2="-1" k3="1" operator="arithmetic"/><feColorMatrix values="0 0 0 0 0.494118 0 0 0 0 0.0784314 0 0 0 0 1 0 0 0 0.4 0"/><feBlend in2="shape" result="effect1_innerShadow_402_687309"/></filter><filter id="e" width="64.316" height="118.882" color-interpolation-filters="sRGB" filterUnits="userSpaceOnUse" x="-26.908" y="-27.228"><feFlood flood-opacity="0" result="BackgroundImageFix"/><feBlend in="SourceGraphic" in2="BackgroundImageFix" result="shape"/><feColorMatrix in="SourceAlpha" result="hardAlpha" values="0 0 0 0 0 0 0 0 0 0 0 0 0 0 0 0 0 0 127 0"/><feOffset dx=".05" dy=".141"/><feGaussianBlur stdDeviation="2.483"/><feComposite in2="hardAlpha" k2="-1" k3="1" operator="arithmetic"/><feColorMatrix values="0 0 0 0 0.494118 0 0 0 0 0.0784314 0 0 0 0 1 0 0 0 0.4 0"/><feBlend in2="shape" result="effect1_innerShadow_402_687309"/></filter><filter id="f" width="91.161" height="66.893" color-interpolation-filters="sRGB" filterUnits="userSpaceOnUse" x="-34.035" y="24.693"><feFlood flood-opacity="0" result="BackgroundImageFix"/><feBlend in="SourceGraphic" in2="BackgroundImageFix" result="shape"/><feColorMatrix in="SourceAlpha" result="hardAlpha" values="0 0 0 0 0 0 0 0 0 0 0 0 0 0 0 0 0 0 127 0"/><feOffset dx=".164" dy=".033"/><feGaussianBlur stdDeviation="3.232"/><feComposite in2="hardAlpha" k2="-1" k3="1" operator="arithmetic"/><feColorMatrix values="0 0 0 0 0.494118 0 0 0 0 0.0784314 0 0 0 0 1 0 0 0 0.4 0"/><feBlend in2="shape" result="effect1_innerShadow_402_687309"/></filter></defs></svg>